<?xml version="1.0" encoding="UTF-8"?>
<svg xmlns="http://www.w3.org/2000/svg" width="1060" height="780" viewBox="0 0 1060 780" style="width:100%;height:100%" font-family="Helvetica, Arial, sans-serif" role="img" aria-label="RSigma streaming detection architecture">
  <defs>
    <filter id="soft" x="-20%" y="-20%" width="140%" height="140%">
      <feDropShadow dx="0" dy="2" stdDeviation="3" flood-color="#0f172a" flood-opacity="0.12"/>
    </filter>
    <marker id="arrow" markerWidth="8" markerHeight="8" refX="6" refY="3" orient="auto" markerUnits="userSpaceOnUse">
      <path class="arrowhead" d="M0,0 L6,3 L0,6 Z" fill="#94a3b8"/>
    </marker>
    <style>
      .lnk { cursor: pointer; }
      .lnk:hover, .lnk:focus-visible { text-decoration: underline; }
      .head { cursor: pointer; }
      .head:focus-visible { outline: none; }
      .card, .flow { transition: stroke 120ms ease; }
      .stageL:hover .card, .stageL:focus-within .card { stroke: #60a5fa; }
      .stageR:hover .card, .stageR:focus-within .card { stroke: #fb923c; }
      .stageS:hover .card, .stageS:focus-within .card { stroke: #94a3b8; }
      .mono { font-family: ui-monospace, SFMono-Regular, Menlo, Consolas, monospace; }
    </style>
  </defs>

  <rect class="bg" fill="#ffffff" x="0" y="0" width="1060" height="780"/>

  <g transform="translate(24,12) scale(0.05)">
    <defs><linearGradient id="logoGrad" gradientUnits="userSpaceOnUse" x1="0" y1="150" x2="0" y2="704"><stop offset="0.0" stop-color="#fea229"/><stop offset="0.5" stop-color="#fb8002"/><stop offset="1.0" stop-color="#e36401"/></linearGradient></defs>
    <g class="logoLine" fill="none" stroke="#0f172a" stroke-width="78" stroke-linejoin="round"><path stroke-linejoin="miter" d="M142,704V285A115 115 0 0 1 248,170.4V255H257V704Z"/><path d="M248,250.4A215 215 0 0 1 610,222L530,301.6A152.5 152.5 0 0 0 258,396.3H200V250.4Z"/></g>
    <g fill="url(#logoGrad)" fill-rule="evenodd"><path d="M142,704V285A115 115 0 0 1 248,170.4V255H257V704Z"/><path d="M248,250.4A215 215 0 0 1 610,222L530,301.6A152.5 152.5 0 0 0 258,396.3H200V250.4Z"/></g>
    <g class="logoLine" fill="none" stroke="#0f172a" stroke-width="78" stroke-linejoin="round"><path d="M744,153.5A293.5 293.5 0 0 0 450.5,447A258 265 0 0 0 966.5,447A258 265 0 0 0 964.2,411.5A163 163 0 0 0 801,270L775,252L764,163.5ZM548.5,446A165.5 176 0 0 1 879.5,446A165.5 176 0 0 1 548.5,446Z"/><path d="M744,155H1035.2A171 171 0 0 1 948.3,252H744Z"/></g>
    <g fill="url(#logoGrad)" fill-rule="evenodd"><path d="M744,153.5A293.5 293.5 0 0 0 450.5,447A258 265 0 0 0 966.5,447A258 265 0 0 0 964.2,411.5A163 163 0 0 0 801,270L775,252L764,163.5ZM548.5,446A165.5 176 0 0 1 879.5,446A165.5 176 0 0 1 548.5,446Z"/><path d="M744,155H1035.2A171 171 0 0 1 948.3,252H744Z"/></g>
    <path class="logo" fill="#0f172a" d="M110,257.2L257,355L110,336.8ZM110,379.9L257,500.5L110,476.5ZM110,529.7L240,604L110,593.3ZM872,401L975,361V421ZM856,511L975,445V504Z"/>
  </g>
  <a class="head" href="https://rsigma.io/" target="_top"><text class="title lnk" fill="#0f172a" x="92" y="33" font-size="20" font-weight="bold">RSigma</text></a>
  <text class="sub" fill="#64748b" x="92" y="51" font-size="12.5">Streaming detection architecture</text>

  <rect class="group" x="316" y="76" width="424" height="570" rx="14" fill="#fffbf5" stroke="#fdba74" stroke-width="1.2" stroke-dasharray="5 4"/>
  <a class="head" href="https://rsigma.io/cli/engine/daemon/" target="_top"><text class="groupT lnk" fill="#9a3412" x="334" y="102" font-size="14" font-weight="bold"><tspan class="mono">rsigma engine daemon</tspan></text></a>
  <text class="annot" fill="#64748b" x="722" y="102" font-size="10.5" text-anchor="end"><a class="lnk" href="https://rsigma.io/guide/streaming-detection/#what-the-daemon-does" target="_top">one process &#183; one API listener</a></text>
  <g class="stage stageS">
    <rect class="card cardS" fill="#ffffff" stroke="#e5e7eb" stroke-width="1" x="334" y="118" width="388" height="104" rx="10" filter="url(#soft)"/>
    <path class="hdrS" fill="#f1f5f9" d="M334.5,128 a9.5,9.5 0 0 1 9.5,-9.5 h368 a9.5,9.5 0 0 1 9.5,9.5 v20 h-387 Z"/>
    <a class="head" href="https://rsigma.io/reference/http-api/" target="_top"><text class="tS lnk" fill="#334155" x="348" y="137.5" font-size="13" font-weight="bold">HTTP API</text></a>
    <text class="ink" fill="#374151" x="348" y="164" font-size="10.5"><a class="lnk" href="https://rsigma.io/reference/http-api/#probes" target="_top">/healthz &#183; /readyz</a> &#183; <a class="lnk" href="https://rsigma.io/reference/metrics/" target="_top">/metrics</a> &#183; <a class="lnk" href="https://rsigma.io/reference/http-api/#reload" target="_top">reload</a> &#183; <a class="lnk" href="https://rsigma.io/reference/http-api/#dynamic-pipeline-sources" target="_top">sources</a></text>
    <text class="ink" fill="#374151" x="348" y="180" font-size="10.5"><a class="lnk" href="https://rsigma.io/reference/http-api-state/" target="_top">incidents &#183; silences &#183; risk &#183; dispositions &#183; audit</a></text>
    <text class="ink" fill="#374151" x="348" y="196" font-size="10.5"><a class="lnk" href="https://rsigma.io/reference/http-api-observability/" target="_top">live event tap &#183; detection tail &#183; field and schema observers</a></text>
    <text class="muted" fill="#6b7280" x="348" y="212" font-size="10.5"><a class="lnk" href="https://rsigma.io/reference/http-api/#authentication" target="_top">token roles</a> &#183; <a class="lnk" href="https://rsigma.io/reference/security/" target="_top">TLS* and mTLS</a></text>
  </g>
  <g class="stage stageR">
    <rect class="card cardR" fill="#ffffff" stroke="#e5e7eb" stroke-width="1" x="334" y="240" width="388" height="104" rx="10" filter="url(#soft)"/>
    <path class="hdrR" fill="#fff7ed" d="M334.5,250 a9.5,9.5 0 0 1 9.5,-9.5 h368 a9.5,9.5 0 0 1 9.5,9.5 v20 h-387 Z"/>
    <a class="head" href="https://rsigma.io/reference/architecture/#data-flow" target="_top"><text class="tR lnk" fill="#9a3412" x="348" y="259.5" font-size="13" font-weight="bold">Detection engine</text></a>
    <text class="ink" fill="#374151" x="348" y="286" font-size="10.5"><a class="lnk" href="https://rsigma.io/reference/architecture/#data-flow" target="_top">parse &#8594; HIR</a> &#8594; <a class="lnk" href="https://rsigma.io/guide/performance-tuning/#always-on-the-matcher-optimizer" target="_top">compiled matchers (Aho-Corasick, RegexSet)</a></text>
    <text class="ink" fill="#374151" x="348" y="302" font-size="10.5"><a class="lnk" href="https://rsigma.io/guide/logsource-routing/" target="_top">logsource pruning</a> &#183; <a class="lnk" href="https://rsigma.io/guide/performance-tuning/#rule-loading-at-scale" target="_top">candidate index</a> &#183; <a class="lnk" href="https://rsigma.io/guide/performance-tuning/#bloom-pre-filter-for-substring-heavy-rule-sets" target="_top">bloom prefilter</a></text>
    <text class="ink" fill="#374151" x="348" y="318" font-size="10.5"><a class="lnk" href="https://rsigma.io/getting-started/concepts/#the-three-kinds-of-rules" target="_top">correlation: group-by &#183; chaining</a> &#183; <a class="lnk" href="https://rsigma.io/guide/streaming-detection/#window-modes" target="_top">sliding windows</a> &#183; <a class="lnk" href="https://rsigma.io/reference/custom-attributes/#rsigma-attributes" target="_top">suppression</a></text>
    <text class="muted" fill="#6b7280" x="348" y="334" font-size="10.5"><a class="lnk" href="https://rsigma.io/guide/streaming-detection/#hot-reload" target="_top">rules and pipelines swap atomically on reload</a></text>
  </g>
  <g class="stage stageR">
    <rect class="card cardR" fill="#ffffff" stroke="#e5e7eb" stroke-width="1" x="334" y="362" width="388" height="72" rx="10" filter="url(#soft)"/>
    <path class="hdrR" fill="#fff7ed" d="M334.5,372 a9.5,9.5 0 0 1 9.5,-9.5 h368 a9.5,9.5 0 0 1 9.5,9.5 v20 h-387 Z"/>
    <a class="head" href="https://rsigma.io/guide/enrichers/" target="_top"><text class="tR lnk" fill="#9a3412" x="348" y="381.5" font-size="13" font-weight="bold">Enrichment</text></a>
    <text class="ink" fill="#374151" x="348" y="408" font-size="10.5"><a class="lnk" href="https://rsigma.io/guide/enrichers/#template-pure-string-interpolation" target="_top">template</a> &#183; <a class="lnk" href="https://rsigma.io/guide/enrichers/#lookup-read-from-the-dynamic-pipelines-source-cache" target="_top">lookup</a> &#183; <a class="lnk" href="https://rsigma.io/guide/enrichers/#http-per-result-http-fetch-with-optional-response-cache" target="_top">http</a> &#183; <a class="lnk" href="https://rsigma.io/guide/enrichers/#command-per-result-local-process-execution" target="_top">command</a> &#183; <a class="lnk" href="https://rsigma.io/guide/enrichers/#stix-local-stix-store-lookup" target="_top">stix*</a></text>
    <text class="muted" fill="#6b7280" x="348" y="424" font-size="10.5"><a class="lnk" href="https://rsigma.io/guide/enrichers/#kind-and-template-namespaces" target="_top">${detection.*} and ${correlation.*} templates</a> &#183; <a class="lnk" href="https://rsigma.io/guide/enrichers/#scope-filtering" target="_top">scope filters</a></text>
  </g>
  <g class="stage stageR">
    <rect class="card cardR" fill="#ffffff" stroke="#e5e7eb" stroke-width="1" x="334" y="452" width="388" height="88" rx="10" filter="url(#soft)"/>
    <path class="hdrR" fill="#fff7ed" d="M334.5,462 a9.5,9.5 0 0 1 9.5,-9.5 h368 a9.5,9.5 0 0 1 9.5,9.5 v20 h-387 Z"/>
    <a class="head" href="https://rsigma.io/guide/risk-based-alerting/" target="_top"><text class="tR lnk" fill="#9a3412" x="348" y="471.5" font-size="13" font-weight="bold">Post-engine layers (opt-in)</text></a>
    <text class="ink" fill="#374151" x="348" y="498" font-size="10.5"><a class="lnk" href="https://rsigma.io/guide/risk-based-alerting/" target="_top">risk: per-entity scoring and risk incidents</a></text>
    <text class="ink" fill="#374151" x="348" y="514" font-size="10.5"><a class="lnk" href="https://rsigma.io/guide/alert-pipeline/" target="_top">alert pipeline: dedup &#183; silence &#183; inhibit &#183; incident grouping</a></text>
    <text class="ink" fill="#374151" x="348" y="530" font-size="10.5"><a class="lnk" href="https://rsigma.io/guide/triage-feedback/" target="_top">dispositions: per-rule false-positive ratio</a></text>
  </g>
  <g class="stage stageS">
    <rect class="card cardS" fill="#ffffff" stroke="#e5e7eb" stroke-width="1" x="334" y="558" width="388" height="72" rx="10" filter="url(#soft)"/>
    <path class="hdrS" fill="#f1f5f9" d="M334.5,568 a9.5,9.5 0 0 1 9.5,-9.5 h368 a9.5,9.5 0 0 1 9.5,9.5 v20 h-387 Z"/>
    <a class="head" href="https://rsigma.io/guide/streaming-detection/#state-persistence" target="_top"><text class="tS lnk" fill="#334155" x="348" y="577.5" font-size="13" font-weight="bold">State</text></a>
    <text class="ink" fill="#374151" x="348" y="604" font-size="10.5"><a class="lnk" href="https://rsigma.io/guide/streaming-detection/#state-persistence" target="_top">in memory, or SQLite with</a> <a class="lnk" href="https://rsigma.io/guide/streaming-detection/#state-persistence" target="_top"><tspan class="mono cmdS" fill="#334155">--state-db</tspan></a></text>
    <text class="muted" fill="#6b7280" x="348" y="620" font-size="10.5"><a class="lnk" href="https://rsigma.io/guide/streaming-detection/#state-persistence" target="_top">correlation</a> &#183; <a class="lnk" href="https://rsigma.io/guide/risk-based-alerting/" target="_top">risk</a> &#183; <a class="lnk" href="https://rsigma.io/guide/alert-pipeline/" target="_top">alert pipeline</a> &#183; <a class="lnk" href="https://rsigma.io/guide/triage-feedback/" target="_top">dispositions</a></text>
  </g>
  <path class="flow" d="M528.0,222 L528.0,238" fill="none" stroke="#94a3b8" stroke-width="1.5" marker-end="url(#arrow)"/>
  <text class="annot" fill="#64748b" x="536.0" y="235" font-size="10" text-anchor="start"><a class="lnk" href="https://rsigma.io/reference/http-api/#reload" target="_top">reload &#183; control</a></text>
  <path class="flow" d="M528.0,344 L528.0,360" fill="none" stroke="#94a3b8" stroke-width="1.5" marker-end="url(#arrow)"/>
  <path class="flow" d="M528.0,434 L528.0,450" fill="none" stroke="#94a3b8" stroke-width="1.5" marker-end="url(#arrow)"/>
  <path class="flow" d="M520.0,540 L520.0,556" fill="none" stroke="#94a3b8" stroke-width="1.5" marker-end="url(#arrow)"/>
  <path class="flow" d="M536.0,558 L536.0,542" fill="none" stroke="#94a3b8" stroke-width="1.5" marker-end="url(#arrow)"/>
  <text class="annot" fill="#64748b" x="544.0" y="553" font-size="10" text-anchor="start"><a class="lnk" href="https://rsigma.io/guide/streaming-detection/#state-persistence" target="_top">snapshot &#183; restore</a></text>
  <g class="stage stageL">
    <rect class="card cardL" fill="#ffffff" stroke="#e5e7eb" stroke-width="1" x="24" y="118" width="216" height="88" rx="10" filter="url(#soft)"/>
    <path class="hdrL" fill="#eff6ff" d="M24.5,128 a9.5,9.5 0 0 1 9.5,-9.5 h196 a9.5,9.5 0 0 1 9.5,9.5 v20 h-215 Z"/>
    <a class="head" href="https://rsigma.io/getting-started/concepts/" target="_top"><text class="tL lnk" fill="#1e3a8a" x="38" y="137.5" font-size="13" font-weight="bold">Rules and pipelines</text></a>
    <text class="ink" fill="#374151" x="38" y="164" font-size="10.5"><a class="lnk" href="https://rsigma.io/getting-started/concepts/#the-three-kinds-of-rules" target="_top">detection &#183; correlation &#183; filter rules</a></text>
    <text class="ink" fill="#374151" x="38" y="180" font-size="10.5"><a class="lnk" href="https://rsigma.io/guide/processing-pipelines/" target="_top">processing pipelines</a> &#183; <a class="lnk" href="https://rsigma.io/reference/builtin-pipelines/" target="_top">built-ins</a></text>
    <text class="muted" fill="#6b7280" x="38" y="196" font-size="10.5"><a class="lnk" href="https://rsigma.io/guide/streaming-detection/#hot-reload" target="_top">hot-reload: file watch &#183; SIGHUP &#183; API</a></text>
  </g>
  <path class="flow" d="M240,166.0 L272,166.0 L272,266 L332,266" fill="none" stroke="#94a3b8" stroke-width="1.5" marker-end="url(#arrow)"/>
  <text class="annot" fill="#64748b" x="246" y="160.0" font-size="10" text-anchor="start"><a class="lnk" href="https://rsigma.io/guide/streaming-detection/#hot-reload" target="_top">load &#183; reload</a></text>
  <g class="stage stageL">
    <rect class="card cardL" fill="#ffffff" stroke="#e5e7eb" stroke-width="1" x="24" y="224" width="216" height="104" rx="10" filter="url(#soft)"/>
    <path class="hdrL" fill="#eff6ff" d="M24.5,234 a9.5,9.5 0 0 1 9.5,-9.5 h196 a9.5,9.5 0 0 1 9.5,9.5 v20 h-215 Z"/>
    <a class="head" href="https://rsigma.io/guide/streaming-detection/#input-sources" target="_top"><text class="tL lnk" fill="#1e3a8a" x="38" y="243.5" font-size="13" font-weight="bold">Log events</text></a>
    <text class="ink" fill="#374151" x="38" y="270" font-size="10.5"><a class="lnk" href="https://rsigma.io/guide/streaming-detection/#input-sources" target="_top">stdin &#183; HTTP</a> &#183; <a class="lnk" href="https://rsigma.io/guide/nats-streaming/" target="_top">NATS*</a> &#183; <a class="lnk" href="https://rsigma.io/guide/streaming-detection/#input-sources" target="_top">unix socket</a></text>
    <text class="ink" fill="#374151" x="38" y="286" font-size="10.5"><a class="lnk" href="https://rsigma.io/guide/otlp-integration/" target="_top">OTLP* over HTTP and gRPC</a></text>
    <text class="ink" fill="#374151" x="38" y="302" font-size="10.5"><a class="lnk" href="https://rsigma.io/guide/input-formats/" target="_top">JSON &#183; syslog &#183; logfmt* &#183; CEF* &#183; EVTX*</a></text>
    <text class="muted" fill="#6b7280" x="38" y="318" font-size="10.5"><a class="lnk" href="https://rsigma.io/guide/input-formats/#auto-detect" target="_top">auto-detect</a> &#183; <a class="lnk" href="https://rsigma.io/guide/schema-routing/" target="_top">schema routing</a></text>
  </g>
  <path class="flow" d="M240,292 L332,292" fill="none" stroke="#94a3b8" stroke-width="1.5" marker-end="url(#arrow)"/>
  <text class="annot" fill="#64748b" x="246" y="286" font-size="10" text-anchor="start"><a class="lnk" href="https://rsigma.io/guide/streaming-detection/#input-sources" target="_top">ingest</a></text>
  <g class="stage stageL">
    <rect class="card cardL" fill="#ffffff" stroke="#e5e7eb" stroke-width="1" x="24" y="346" width="216" height="88" rx="10" filter="url(#soft)"/>
    <path class="hdrL" fill="#eff6ff" d="M24.5,356 a9.5,9.5 0 0 1 9.5,-9.5 h196 a9.5,9.5 0 0 1 9.5,9.5 v20 h-215 Z"/>
    <a class="head" href="https://rsigma.io/reference/dynamic-sources/" target="_top"><text class="tL lnk" fill="#1e3a8a" x="38" y="365.5" font-size="13" font-weight="bold">Dynamic sources</text></a>
    <text class="ink" fill="#374151" x="38" y="392" font-size="10.5"><a class="lnk" href="https://rsigma.io/reference/dynamic-sources/#http" target="_top">HTTP</a> &#183; <a class="lnk" href="https://rsigma.io/reference/dynamic-sources/#command" target="_top">command</a> &#183; <a class="lnk" href="https://rsigma.io/reference/dynamic-sources/#file" target="_top">file</a> &#183; <a class="lnk" href="https://rsigma.io/guide/nats-streaming/" target="_top">NATS</a></text>
    <text class="ink" fill="#374151" x="38" y="408" font-size="10.5"><a class="lnk" href="https://rsigma.io/reference/dynamic-sources/#extract-languages" target="_top">jq &#183; JSONPath &#183; CEL extraction</a></text>
    <text class="muted" fill="#6b7280" x="38" y="424" font-size="10.5"><a class="lnk" href="https://rsigma.io/reference/dynamic-sources/#refresh-policies" target="_top">TTL cache &#183; interval, watch, push refresh</a></text>
  </g>
  <path class="flow" d="M240,394.0 L286,394.0 L286,328 L332,328" fill="none" stroke="#94a3b8" stroke-width="1.5" stroke-dasharray="4 4" marker-end="url(#arrow)"/>
  <text class="annot" fill="#64748b" x="246" y="408.0" font-size="10" text-anchor="start"><a class="lnk" href="https://rsigma.io/reference/dynamic-sources/#template-substitution" target="_top">${source.*}</a></text>
  <g class="stage stageL">
    <rect class="card cardL" fill="#ffffff" stroke="#e5e7eb" stroke-width="1" x="24" y="452" width="216" height="72" rx="10" filter="url(#soft)"/>
    <path class="hdrL" fill="#eff6ff" d="M24.5,462 a9.5,9.5 0 0 1 9.5,-9.5 h196 a9.5,9.5 0 0 1 9.5,9.5 v20 h-215 Z"/>
    <a class="head" href="https://rsigma.io/cli/taxii/sync/" target="_top"><text class="tL lnk" fill="#1e3a8a" x="38" y="471.5" font-size="13" font-weight="bold">Threat intel</text></a>
    <text class="ink" fill="#374151" x="38" y="498" font-size="10.5"><a class="lnk" href="https://rsigma.io/cli/taxii/sync/" target="_top"><tspan class="mono cmdL" fill="#1d4ed8">taxii sync*</tspan> to a local STIX store</a></text>
    <text class="muted" fill="#6b7280" x="38" y="514" font-size="10.5"><a class="lnk" href="https://rsigma.io/library/rstix/" target="_top">rstix: STIX 2.1 and TAXII 2.1</a></text>
  </g>
  <path class="flow" d="M240,492.0 L300,492.0 L300,398.0 L332,398.0" fill="none" stroke="#94a3b8" stroke-width="1.5" stroke-dasharray="4 4" marker-end="url(#arrow)"/>
  <text class="annot" fill="#64748b" x="246" y="506.0" font-size="10" text-anchor="start"><a class="lnk" href="https://rsigma.io/guide/enrichers/#stix-local-stix-store-lookup" target="_top">stix lookups</a></text>
  <g class="stage stageS">
    <rect class="card cardS" fill="#ffffff" stroke="#e5e7eb" stroke-width="1" x="800" y="118" width="236" height="104" rx="10" filter="url(#soft)"/>
    <path class="hdrS" fill="#f1f5f9" d="M800.5,128 a9.5,9.5 0 0 1 9.5,-9.5 h216 a9.5,9.5 0 0 1 9.5,9.5 v20 h-235 Z"/>
    <a class="head" href="https://rsigma.io/guide/observability/" target="_top"><text class="tS lnk" fill="#334155" x="814" y="137.5" font-size="13" font-weight="bold">Operators and agents</text></a>
    <text class="ink" fill="#374151" x="814" y="164" font-size="10.5"><a class="lnk" href="https://rsigma.io/reference/metrics/" target="_top">Prometheus scrape of /metrics</a></text>
    <text class="ink" fill="#374151" x="814" y="180" font-size="10.5"><a class="lnk" href="https://rsigma.io/cli/engine/status/" target="_top"><tspan class="mono cmdS" fill="#334155">engine status</tspan></a> &#183; <a class="lnk" href="https://rsigma.io/cli/engine/tap/" target="_top"><tspan class="mono cmdS" fill="#334155">tap</tspan></a> &#183; <a class="lnk" href="https://rsigma.io/cli/engine/tail/" target="_top"><tspan class="mono cmdS" fill="#334155">tail</tspan></a></text>
    <text class="ink" fill="#374151" x="814" y="196" font-size="10.5"><a class="lnk" href="https://rsigma.io/cli/engine/incidents-export/" target="_top"><tspan class="mono cmdS" fill="#334155">engine incidents-export</tspan></a></text>
    <text class="ink" fill="#374151" x="814" y="212" font-size="10.5"><a class="lnk" href="https://rsigma.io/guide/mcp-server/" target="_top">MCP Operate tools</a> (<a class="lnk" href="https://rsigma.io/cli/mcp/serve/" target="_top"><tspan class="mono cmdS" fill="#334155">--daemon-url</tspan></a>)</text>
  </g>
  <path class="flow" d="M798,176.0 L724,176.0" fill="none" stroke="#94a3b8" stroke-width="1.5" marker-end="url(#arrow)"/>
  <text class="annot" fill="#64748b" x="765.0" y="170.0" font-size="10" text-anchor="middle"><a class="lnk" href="https://rsigma.io/reference/http-api/#endpoint-summary" target="_top">query &#183; control</a></text>
  <g class="stage stageS">
    <rect class="card cardS" fill="#ffffff" stroke="#e5e7eb" stroke-width="1" x="800" y="444.0" width="236" height="104" rx="10" filter="url(#soft)"/>
    <path class="hdrS" fill="#f1f5f9" d="M800.5,454.0 a9.5,9.5 0 0 1 9.5,-9.5 h216 a9.5,9.5 0 0 1 9.5,9.5 v20 h-235 Z"/>
    <a class="head" href="https://rsigma.io/guide/streaming-detection/#output-sinks" target="_top"><text class="tS lnk" fill="#334155" x="814" y="463.5" font-size="13" font-weight="bold">Sinks</text></a>
    <text class="ink" fill="#374151" x="814" y="490.0" font-size="10.5"><a class="lnk" href="https://rsigma.io/guide/streaming-detection/#output-sinks" target="_top">stdout &#183; file</a> &#183; <a class="lnk" href="https://rsigma.io/guide/nats-streaming/" target="_top">NATS*</a> &#183; <a class="lnk" href="https://rsigma.io/guide/otlp-integration/" target="_top">OTLP*</a> &#183; <a class="lnk" href="https://rsigma.io/guide/streaming-detection/#output-sinks" target="_top">unix</a></text>
    <text class="ink" fill="#374151" x="814" y="506.0" font-size="10.5"><a class="lnk" href="https://rsigma.io/guide/webhooks/" target="_top">webhook: Slack &#183; Teams &#183; PagerDuty</a></text>
    <text class="ink" fill="#374151" x="814" y="522.0" font-size="10.5"><a class="lnk" href="https://rsigma.io/guide/ocsf-findings/" target="_top">NDJSON or OCSF Detection Finding</a></text>
    <text class="muted" fill="#6b7280" x="814" y="538.0" font-size="10.5"><a class="lnk" href="https://rsigma.io/guide/streaming-detection/#pipeline-and-back-pressure-tuning" target="_top">per-sink workers &#183; retry</a> &#183; <a class="lnk" href="https://rsigma.io/guide/nats-streaming/#dead-letter-queue" target="_top">dead-letter queue</a></text>
  </g>
  <path class="flow" d="M722,502.0 L798,502.0" fill="none" stroke="#94a3b8" stroke-width="1.5" marker-end="url(#arrow)"/>
  <text class="annot" fill="#64748b" x="765.0" y="496.0" font-size="10" text-anchor="middle"><a class="lnk" href="https://rsigma.io/reference/output/" target="_top">results</a></text>
  <g class="stage stageS">
    <rect class="card cardS" fill="#ffffff" stroke="#e5e7eb" stroke-width="1" x="800" y="566.0" width="236" height="72" rx="10" filter="url(#soft)"/>
    <path class="hdrS" fill="#f1f5f9" d="M800.5,576.0 a9.5,9.5 0 0 1 9.5,-9.5 h216 a9.5,9.5 0 0 1 9.5,9.5 v20 h-235 Z"/>
    <a class="head" href="https://rsigma.io/guide/streaming-detection/#output-sinks" target="_top"><text class="tS lnk" fill="#334155" x="814" y="585.5" font-size="13" font-weight="bold">Downstream</text></a>
    <text class="ink" fill="#374151" x="814" y="612.0" font-size="10.5"><a class="lnk" href="https://rsigma.io/guide/webhooks/#slack" target="_top">chat</a> &#183; <a class="lnk" href="https://rsigma.io/guide/webhooks/#pagerduty" target="_top">on-call</a> &#183; <a class="lnk" href="https://rsigma.io/guide/ocsf-findings/" target="_top">SIEM and SOAR over OCSF</a></text>
    <text class="ink" fill="#374151" x="814" y="628.0" font-size="10.5"><a class="lnk" href="https://rsigma.io/reference/backends/postgres/" target="_top">PostgreSQL/TimescaleDB archive</a> &#183; <a class="lnk" href="https://rsigma.io/guide/hunting/" target="_top">hunts</a></text>
  </g>
  <path class="flow" d="M918.0,548.0 L918.0,564.0" fill="none" stroke="#94a3b8" stroke-width="1.5" marker-end="url(#arrow)"/>
  <text class="annot" fill="#64748b" x="926.0" y="561.0" font-size="10" text-anchor="start"><a class="lnk" href="https://rsigma.io/guide/streaming-detection/#output-sinks" target="_top">deliver</a></text>
  <g class="stage stageS">
    <rect class="card cardS" fill="#ffffff" stroke="#e5e7eb" stroke-width="1" x="24" y="668" width="1012" height="72" rx="10" filter="url(#soft)"/>
    <path class="hdrS" fill="#f1f5f9" d="M24.5,678 a9.5,9.5 0 0 1 9.5,-9.5 h992 a9.5,9.5 0 0 1 9.5,9.5 v20 h-1011 Z"/>
    <a class="head" href="https://rsigma.io/cli/" target="_top"><text class="tS lnk" fill="#334155" x="38" y="687.5" font-size="13" font-weight="bold">Same engine, outside the daemon</text></a>
    <text class="ink" fill="#374151" x="38" y="714" font-size="10.5"><a class="lnk" href="https://rsigma.io/cli/engine/eval/" target="_top"><tspan class="mono cmdS" fill="#334155">engine eval</tspan> one-shot and batch evaluation</a> &#183; <a class="lnk" href="https://rsigma.io/cli/backend/convert/" target="_top"><tspan class="mono cmdS" fill="#334155">backend convert</tspan> to SQL, SPL, KQL, Lucene, and more</a> &#183; <a class="lnk" href="https://rsigma.io/cli/hunt/run/" target="_top"><tspan class="mono cmdS" fill="#334155">hunt run*</tspan> against the PostgreSQL archive</a></text>
    <text class="ink" fill="#374151" x="38" y="730" font-size="10.5"><a class="lnk" href="https://rsigma.io/cli/rule/lint/" target="_top"><tspan class="mono cmdS" fill="#334155">rule lint</tspan></a> &#183; <a class="lnk" href="https://rsigma.io/cli/rule/draft/" target="_top"><tspan class="mono cmdS" fill="#334155">draft</tspan></a> &#183; <a class="lnk" href="https://rsigma.io/cli/rule/tune/" target="_top"><tspan class="mono cmdS" fill="#334155">tune</tspan></a> &#183; <a class="lnk" href="https://rsigma.io/cli/rule/backtest/" target="_top"><tspan class="mono cmdS" fill="#334155">backtest</tspan></a> &#183; <a class="lnk" href="https://rsigma.io/cli/mcp/serve/" target="_top"><tspan class="mono cmdS" fill="#334155">mcp serve*</tspan> Engineer tools for AI agents</a> &#183; <a class="lnk" href="https://rsigma.io/editors/vscode/" target="_top"><tspan class="mono cmdS" fill="#334155">rsigma-lsp</tspan> diagnostics in editors</a></text>
  </g>
  <text class="muted" fill="#6b7280" x="24" y="762" font-size="10.5"><a class="lnk" href="https://rsigma.io/reference/feature-flags/" target="_top">* opt-in Cargo feature, included in the prebuilt binaries and the Docker image</a></text>
</svg>
